<svg version="1.1" id="Layer_1" xmlns="http://www.w3.org/2000/svg" xmlns:xlink="http://www.w3.org/1999/xlink" x="0px" y="0px"
	 width="100%" viewBox="0 0 800 800" enable-background="new 0 0 800 800" xml:space="preserve">
<path fill="#141F37" opacity="1.000000" stroke="none" 
	d="
M376.000000,801.000000 
	C250.666672,801.000000 125.833336,801.000000 1.000000,801.000000 
	C1.000000,534.333313 1.000000,267.666656 1.000000,1.000000 
	C267.666656,1.000000 534.333313,1.000000 801.000000,1.000000 
	C801.000000,267.666656 801.000000,534.333313 801.000000,801.000000 
	C659.500000,801.000000 518.000000,801.000000 376.000000,801.000000 
M670.351318,467.568146 
	C673.923462,469.996307 677.495605,472.424469 681.769165,475.166962 
	C691.034668,478.265991 700.148926,477.869751 708.806152,473.326508 
	C721.489685,466.670349 722.022034,453.464050 710.035156,445.744049 
	C707.812927,444.312866 705.405762,443.157959 703.039124,441.964325 
	C697.706970,439.274902 692.228943,436.851349 687.024780,433.936676 
	C678.637573,429.239258 676.068420,419.353668 686.652100,412.811951 
	C682.980103,413.593048 679.237610,414.558411 676.233215,416.606445 
	C666.819336,423.023621 666.837585,433.039520 676.247925,439.407349 
	C680.066711,441.991455 684.527832,443.604797 688.530029,445.944763 
	C694.238098,449.282043 700.288940,452.294220 705.288147,456.516846 
	C711.598511,461.846985 710.097229,468.853333 702.681641,472.487854 
	C696.047241,475.739471 689.178772,475.423126 681.794922,473.296814 
	C678.195190,470.867035 674.595459,468.437286 670.646912,465.402435 
	C668.854797,462.132782 667.062683,458.863129 665.287048,455.623688 
	C663.251953,460.984253 666.886414,463.875641 670.351318,467.568146 
M209.779343,412.992645 
	C211.165100,413.028961 212.550873,413.065308 213.986343,414.024994 
	C213.854965,434.971619 214.295135,455.948486 210.954834,476.847931 
	C216.308441,476.847931 221.945251,476.847931 227.336182,476.847931 
	C223.797195,455.931335 224.486374,434.917999 224.442276,413.291565 
	C232.280884,412.283478 239.034424,414.493408 245.531830,421.343536 
	C244.839371,417.200867 244.371277,414.400452 243.918854,411.693787 
	C236.948013,411.693787 230.385040,411.693787 222.959885,411.519165 
	C220.029465,411.580597 217.099030,411.642059 213.332764,411.341278 
	C211.838715,411.449951 210.344650,411.558624 207.962982,411.486023 
	C203.521469,411.486023 199.079941,411.486023 194.469177,411.486023 
	C193.809921,414.824341 193.233109,417.745178 192.656281,420.665985 
	C197.035690,415.374878 202.789246,413.698303 209.779343,412.992645 
M647.822449,412.983612 
	C654.209473,413.629639 659.730835,415.940674 664.054932,422.259125 
	C663.162109,418.012665 662.490356,414.817657 661.833130,411.691650 
	C656.700745,411.691650 651.925232,411.691650 646.309204,411.338867 
	C644.815613,411.455109 643.321960,411.571381 640.964111,411.518097 
	C638.032715,411.586060 635.101379,411.654022 631.278259,411.346497 
	C626.114380,411.312561 620.944336,411.131073 615.791077,411.348389 
	C614.502625,411.402679 612.584106,412.467682 612.153503,413.546509 
	C611.291260,415.706696 611.256836,418.197296 610.650940,421.988892 
	C616.804382,414.219452 624.030029,412.660309 632.051392,413.978058 
	C631.937500,434.953949 632.608826,455.965118 629.031189,476.861206 
	C634.690063,476.861206 640.150085,476.861206 645.508240,476.861206 
	C641.837036,455.702759 642.814636,434.433350 642.970032,413.081665 
	C644.330994,412.995331 645.691895,412.909027 647.822449,412.983612 
M523.058105,475.227386 
	C521.654541,475.227386 520.250977,475.227386 518.847412,475.227386 
	C518.919434,475.795166 518.991455,476.362915 519.063477,476.930695 
	C520.652344,476.507751 522.241211,476.084839 524.341736,475.437714 
	C527.784241,474.895660 531.721680,475.250580 534.589966,473.667877 
	C555.214783,462.287689 556.740356,430.234772 537.402222,416.759003 
	C534.584167,414.795258 531.126221,413.749573 527.964417,412.279083 
	C528.446716,412.059235 528.928955,411.839386 529.411255,411.619568 
	C531.638794,414.894531 533.871399,418.166107 536.093079,421.445007 
	C544.320801,433.588074 544.410889,454.767029 536.157776,466.920898 
	C533.208252,471.264526 529.758484,475.118652 523.058105,475.227386 
M334.389099,425.327942 
	C331.985382,431.239044 329.581635,437.150116 326.874542,443.702667 
	C321.966858,454.711121 317.059204,465.719543 312.127899,476.780945 
	C313.839233,476.780945 315.443024,476.780945 316.655090,476.780945 
	C320.507019,466.003967 324.240875,455.557373 327.905548,445.304291 
	C345.167389,443.977051 345.187073,443.970612 350.269440,459.508087 
	C351.299500,462.657166 352.301117,465.837189 352.976105,469.073761 
	C353.489807,471.537109 353.465393,474.112701 353.678680,476.617798 
	C358.685181,476.617798 364.143768,476.617798 368.683197,476.617798 
	C359.459167,454.910370 350.239380,433.212921 340.523621,410.348175 
	C338.354187,415.962067 336.635468,420.409698 334.389099,425.327942 
M387.735260,475.223450 
	C397.566589,478.364777 407.125580,477.849396 416.063446,472.507507 
	C426.911041,466.024261 427.427399,453.400787 416.902527,446.524109 
	C411.241638,442.825378 404.795410,440.349365 398.845062,437.065247 
	C395.244110,435.077789 391.507782,433.029877 388.555908,430.242706 
	C383.951996,425.895691 384.746948,419.324127 389.740356,415.503906 
	C390.686432,414.780090 391.690979,414.132782 393.072235,413.168274 
	C385.484833,412.704651 377.952026,417.752899 375.862610,424.232513 
	C373.884155,430.368042 376.203674,435.773712 383.066620,440.039307 
	C386.577026,442.221161 390.487640,443.749878 394.067657,445.831299 
	C399.785828,449.155701 405.859283,452.114136 410.906281,456.287109 
	C417.504944,461.742920 416.086426,468.879669 408.390747,472.520569 
	C401.398865,475.828430 394.252197,475.705475 386.552490,472.884644 
	C379.991852,469.507080 374.832611,464.700836 370.747559,457.091431 
	C373.891052,466.238678 378.872437,472.041077 387.735260,475.223450 
M568.085632,411.683228 
	C564.468994,411.683228 560.852295,411.683228 557.745300,411.683228 
	C561.208069,433.752533 561.294739,455.279022 557.729675,476.680969 
	C562.287964,476.680969 567.146545,476.680969 571.000793,476.680969 
	C570.141174,466.066040 569.302063,455.704102 568.461853,445.329163 
	C572.904846,445.329163 576.403748,445.163422 579.872314,445.415344 
	C581.157593,445.508667 582.939514,446.250641 583.529846,447.260803 
	C589.106079,456.801697 594.473755,466.464447 600.157715,476.546448 
	C603.109741,476.546448 607.269958,476.546448 611.035828,476.546448 
	C603.912292,465.894775 596.857483,455.345856 589.970398,445.047668 
	C593.325623,443.197937 596.069397,441.968597 598.505371,440.292145 
	C607.807251,433.890625 607.964600,423.363678 598.897400,416.645386 
	C592.653931,412.019348 585.419495,411.359833 577.346069,411.295227 
	C574.567383,411.432281 571.788635,411.569336 568.085632,411.683228 
M272.351715,411.295563 
	C269.571136,411.432495 266.790558,411.569458 263.085693,411.683228 
	C259.469299,411.683228 255.852936,411.683228 252.680298,411.683228 
	C256.203217,433.750397 256.321960,455.278748 252.645142,476.679352 
	C257.291565,476.679352 262.148621,476.679352 266.000458,476.679352 
	C265.140778,466.066071 264.301697,455.707306 263.461060,445.329468 
	C267.899353,445.329468 271.396149,445.160736 274.861481,445.417389 
	C276.143188,445.512329 277.911682,446.280334 278.505005,447.297394 
	C284.068573,456.834473 289.425262,466.492279 295.096741,476.568176 
	C298.065887,476.568176 302.240082,476.568176 306.023621,476.568176 
	C298.908966,465.918610 291.854370,455.358948 284.973236,445.058899 
	C288.394348,443.141541 291.305084,441.850525 293.835327,440.030518 
	C302.605591,433.722107 302.767181,423.661163 294.275940,416.981689 
	C287.994965,412.040985 280.599274,411.371979 272.351715,411.295563 
M344.663971,235.169586 
	C327.574585,251.847122 318.018036,272.037140 317.564209,295.971863 
	C316.964447,327.602356 329.869049,352.213287 357.949829,367.554657 
	C380.496216,379.872437 404.768219,381.193604 429.210602,374.656921 
	C451.741638,368.631439 468.659668,355.071564 478.054993,333.252472 
	C485.775726,315.322540 486.332214,296.634430 481.825012,277.955627 
	C475.042328,249.846619 459.629578,227.797363 432.140839,217.006165 
	C399.844269,204.327591 370.769775,212.029465 344.663971,235.169586 
M435.989838,428.818420 
	C436.043213,444.853607 437.531982,460.963470 433.477081,476.863892 
	C438.790192,476.863892 444.085693,476.863892 448.459595,476.863892 
	C447.606171,466.609039 446.759735,456.438629 445.880432,445.873169 
	C455.539093,445.873169 464.248108,445.873169 473.918121,445.873169 
	C473.077911,456.411102 472.267120,466.580170 471.454437,476.773010 
	C475.791992,476.773010 481.159088,476.773010 486.009186,476.773010 
	C482.590057,454.949463 482.985657,433.359528 485.721863,411.781250 
	C481.018951,411.781250 475.803009,411.781250 471.494812,411.781250 
	C472.303101,422.198578 473.090820,432.351105 473.902100,442.807068 
	C464.245728,442.807068 455.489197,442.807068 445.879822,442.807068 
	C446.747162,432.239929 447.592163,421.945129 448.439331,411.623962 
	C443.799927,411.623962 438.679382,411.623962 433.875671,411.623962 
	C434.582153,417.140289 435.270142,422.512268 435.989838,428.818420 
M135.977859,443.510162 
	C135.977798,447.008545 135.998932,450.507050 135.973694,454.005249 
	C135.898865,464.379303 130.610687,470.100952 120.233604,470.677734 
	C117.279694,470.841949 114.248337,470.440033 111.312347,469.943695 
	C102.659447,468.480988 98.067352,463.803070 98.159950,455.078156 
	C98.312859,440.670746 99.196716,426.271088 99.773643,411.840118 
	C95.530960,411.840118 90.038452,411.840118 84.587585,411.840118 
	C85.145325,414.625641 85.920364,417.026398 86.063980,419.464386 
	C86.738823,430.920868 87.431122,442.382172 87.753326,453.851990 
	C88.122780,467.003845 97.961388,476.546356 112.071152,476.984924 
	C125.965759,477.416779 137.452866,467.690613 137.753082,454.624084 
	C138.080460,440.375580 137.827469,426.113770 137.827469,411.806641 
	C137.439819,411.806641 135.894058,411.806641 134.900818,411.806641 
	C135.267517,422.263824 135.622681,432.392487 135.977859,443.510162 
M195.513351,476.307892 
	C196.023026,473.356964 196.532700,470.406006 197.162338,466.760498 
	C186.018356,476.051086 173.512131,475.302124 160.367569,476.039673 
	C161.123734,454.093414 161.853363,432.917114 162.580399,411.815979 
	C158.646957,411.815979 153.935410,411.815979 149.536575,411.815979 
	C152.753937,433.701965 152.810425,455.244598 149.484024,476.861084 
	C164.545471,476.861084 179.683182,476.861084 195.513351,476.307892 
M499.222961,464.242950 
	C505.286224,472.279205 511.200653,476.058105 516.778564,475.459747 
	C496.568817,463.233368 497.070831,425.081543 516.310120,413.091095 
	C507.754822,413.971527 502.070801,419.381226 498.131165,426.332977 
	C491.112610,438.717896 491.372528,451.336121 499.222961,464.242950 
M211.932846,538.498840 
	C212.691666,538.674683 213.450485,538.850586 214.209305,539.026489 
	C214.209305,533.359314 214.209305,527.692139 214.209305,522.024963 
	C213.704102,521.897705 213.198883,521.770447 212.693680,521.643188 
	C210.376938,524.679810 208.060196,527.716431 205.838715,530.628235 
	C203.222885,527.400513 200.831528,524.449768 197.780853,520.685486 
	C197.780853,528.343750 197.780853,534.200317 197.780853,540.056946 
	C198.273804,540.072205 198.766769,540.087463 199.259720,540.102661 
	C199.498672,536.067688 199.737610,532.032715 200.035187,527.007629 
	C202.344650,530.153625 203.951859,532.343018 205.775467,534.827148 
	C207.785004,532.086182 209.541473,529.690369 211.928787,526.434082 
	C211.928787,531.047668 211.928787,534.371399 211.932846,538.498840 
M296.014893,526.686707 
	C296.014893,529.383789 296.014893,532.080933 296.014893,535.785583 
	C291.660339,530.337280 288.120178,525.907898 284.580048,521.478516 
	C284.289124,521.790283 283.998169,522.102112 283.707245,522.413940 
	C283.707245,528.284607 283.707245,534.155334 283.707245,540.026062 
	C284.270294,540.040649 284.833374,540.055237 285.396423,540.069885 
	C285.396423,535.909607 285.396423,531.749329 285.396423,527.589050 
	C285.788147,527.586243 286.179871,527.583496 286.571625,527.580750 
	C290.023560,531.924500 293.475525,536.268188 296.927460,540.611938 
	C297.235016,540.352783 297.542542,540.093628 297.850098,539.834412 
	C297.850098,533.933350 297.850098,528.032288 297.850098,522.131226 
	C297.365051,522.093750 296.879974,522.056274 296.394928,522.018799 
	C296.268280,523.277161 296.141663,524.535522 296.014893,526.686707 
M420.898041,537.034790 
	C420.898041,532.059021 420.898041,527.083191 420.898041,522.107422 
	C420.229858,522.101013 419.561676,522.094666 418.893494,522.088257 
	C418.893494,526.274292 418.893494,530.460327 418.893494,534.646301 
	C418.501129,534.710083 418.108734,534.773865 417.716370,534.837646 
	C414.181854,530.405273 410.647369,525.972961 406.312683,520.537170 
	C406.312683,528.229370 406.312683,534.126465 406.312683,540.023560 
	C406.826874,540.032837 407.341064,540.042114 407.855255,540.051392 
	C407.855255,535.763916 407.855255,531.476501 407.855255,527.189087 
	C411.744659,530.877502 414.463715,534.636353 417.238464,538.353638 
	C418.645325,540.238403 420.122192,541.796326 420.898041,537.034790 
M379.704895,527.114197 
	C377.741852,532.687988 373.371155,528.430298 370.251160,529.884338 
	C369.760254,526.959106 369.345001,524.484741 368.929749,522.010315 
	C368.573151,522.092834 368.216522,522.175293 367.859924,522.257812 
	C367.859924,528.176941 367.859924,534.096069 367.859924,540.015198 
	C368.346619,540.037964 368.833313,540.060730 369.320007,540.083496 
	C369.528809,537.463135 369.737610,534.842712 369.953857,532.129089 
	C373.315430,532.129089 376.274536,532.129089 379.284729,532.129089 
	C379.656128,534.922729 380.004669,537.544556 380.353241,540.166382 
	C380.689911,540.092590 381.026611,540.018799 381.363281,539.945007 
	C381.363281,533.991272 381.363281,528.037537 381.363281,522.083801 
	C380.938385,522.075012 380.513489,522.066162 380.088562,522.057373 
	C379.963074,523.423401 379.837555,524.789490 379.704895,527.114197 
M319.896210,537.805176 
	C313.821503,538.428528 310.364227,536.203857 310.320923,531.402100 
	C310.289520,527.922546 311.844604,524.848816 315.400757,524.388123 
	C318.120758,524.035828 321.035217,525.184875 324.104462,525.707092 
	C320.671906,521.629639 316.684845,520.771973 312.668793,523.037476 
	C308.643768,525.308044 306.942932,530.310913 308.701080,534.708008 
	C310.354431,538.843018 314.598297,541.065552 319.283417,540.089478 
	C324.060608,539.094299 325.523315,535.827271 325.186768,531.301880 
	C322.995728,531.301880 321.043182,531.301880 319.090637,531.301880 
	C319.046967,531.591736 319.003296,531.881592 318.959595,532.171387 
	C320.305725,532.613647 321.651825,533.055847 323.689117,533.725098 
	C322.424072,535.232971 321.516510,536.314758 319.896210,537.805176 
M436.391266,537.463196 
	C432.766693,535.311523 431.947876,531.837708 433.368927,528.393188 
	C436.174774,521.591980 441.611389,524.388428 447.387421,526.562317 
	C443.163910,521.617920 439.207062,520.756592 435.135620,523.004395 
	C431.215424,525.168762 429.461395,530.213684 431.079742,534.669739 
	C432.480133,538.525452 436.567047,540.803345 441.149994,540.197571 
	C446.299347,539.516968 447.809998,536.036804 447.931702,531.349609 
	C445.667847,531.349609 443.584290,531.349609 441.500763,531.349609 
	C441.467987,531.646057 441.435242,531.942505 441.402466,532.238953 
	C442.768555,532.672058 444.134644,533.105103 445.547333,533.552917 
	C444.164429,538.422791 440.833466,538.506714 436.391266,537.463196 
M494.549011,532.131042 
	C496.768341,531.953613 498.987701,531.776184 501.207031,531.598816 
	C501.189240,531.136597 501.171448,530.674438 501.153656,530.212280 
	C498.795380,529.979919 496.437103,529.747620 494.056946,529.513123 
	C494.056946,527.713074 494.056946,526.104492 494.056946,524.415955 
	C496.859222,524.191711 499.436859,523.985413 502.014465,523.779175 
	C501.985413,523.342102 501.956390,522.904968 501.927338,522.467896 
	C498.508789,522.467896 495.090210,522.467896 491.430939,522.467896 
	C491.430939,528.304199 491.430939,534.025574 491.430939,539.639038 
	C495.140198,539.639038 498.590363,539.639038 502.040527,539.639038 
	C502.069336,539.229370 502.098145,538.819702 502.126953,538.410034 
	C499.390839,538.150513 496.654755,537.890991 493.944580,537.633911 
	C493.944580,535.760681 493.944580,534.271179 494.549011,532.131042 
M256.227203,533.286316 
	C255.468903,532.268433 254.710587,531.250549 253.923126,530.193604 
	C256.379578,527.495422 258.597198,525.059570 260.814819,522.623718 
	C260.455566,522.260193 260.096313,521.896606 259.737061,521.533081 
	C256.942413,524.007202 254.147736,526.481262 251.229355,529.064880 
	C250.847961,526.382690 250.535751,524.187134 250.223541,521.991516 
	C249.800369,522.056091 249.377197,522.120605 248.954025,522.185181 
	C248.954025,528.139526 248.954025,534.093872 248.954025,540.048218 
	C249.395416,540.098145 249.836823,540.148071 250.278214,540.197998 
	C250.642944,537.639160 251.007690,535.080261 251.547165,531.295349 
	C253.573807,533.703186 254.746262,535.218933 256.050568,536.611206 
	C257.350647,537.998901 258.782990,539.262756 260.157318,540.580872 
	C260.525543,540.219849 260.893738,539.858887 261.261963,539.497864 
	C259.736267,537.605042 258.210602,535.712280 256.227203,533.286316 
M538.086975,526.532593 
	C540.719543,520.162903 544.680725,526.896912 548.059143,525.679626 
	C546.173645,521.738037 542.870056,521.166138 539.614258,522.278870 
	C538.033569,522.819153 536.238220,525.100342 536.020752,526.784546 
	C535.514587,530.706299 538.930664,531.403809 541.852173,532.205017 
	C542.170166,532.292297 542.566040,532.344788 542.768738,532.560791 
	C543.797913,533.657288 544.775208,534.802429 545.770630,535.930603 
	C544.292480,536.701721 542.784790,538.141663 541.343445,538.078064 
	C539.459045,537.994873 537.627136,536.722656 535.116638,535.692871 
	C536.957336,540.623718 540.468323,540.871338 543.800720,539.999512 
	C545.473389,539.561890 547.576965,537.565308 547.931091,535.935852 
	C548.767822,532.086182 545.317993,531.221924 542.578369,529.997498 
	C541.007568,529.295349 539.599121,528.229980 538.086975,526.532593 
M468.202209,532.621826 
	C466.299316,531.679504 464.207672,530.983582 462.553528,529.716553 
	C461.244446,528.713806 460.472412,527.010071 459.461884,525.617615 
	C461.247253,525.163696 463.038452,524.350708 464.816040,524.379395 
	C466.046539,524.399231 467.258331,525.580078 468.478485,526.242126 
	C466.445679,522.127625 463.705231,520.748718 460.613953,522.265259 
	C459.013184,523.050537 456.789154,526.080811 457.177032,526.753784 
	C458.404816,528.884155 460.721466,530.392029 462.644684,532.109741 
	C462.869934,532.310913 463.372131,532.222107 463.567841,532.432922 
	C464.682312,533.633972 465.742737,534.885132 466.821533,536.119263 
	C465.127625,536.797791 463.425171,538.025391 461.742279,537.999084 
	C460.089600,537.973389 458.456818,536.673706 455.987793,535.559753 
	C458.363434,540.896667 462.100708,540.864563 465.690613,539.932556 
	C468.979645,539.078613 469.914673,536.456726 468.202209,532.621826 
M603.908752,529.061340 
	C603.650330,522.589844 600.658325,520.917725 592.813110,522.588379 
	C592.813110,528.448303 592.813110,534.209900 592.813110,539.971436 
	C593.218201,539.972656 593.623291,539.973877 594.028381,539.975098 
	C594.243896,537.806213 594.459351,535.637268 594.680542,533.411377 
	C600.734253,531.424683 599.383972,539.855957 604.511902,540.051331 
	C603.128174,537.333984 601.982544,535.084167 600.885742,532.930298 
	C601.910828,531.755310 602.770508,530.769958 603.908752,529.061340 
M236.180405,537.016846 
	C236.964249,538.094666 237.748093,539.172485 238.531937,540.250305 
	C238.935577,539.989502 239.339218,539.728760 239.742859,539.467957 
	C237.199631,533.518738 234.656403,527.569458 232.113159,521.620178 
	C231.532150,521.682495 230.951141,521.744873 230.370132,521.807251 
	C227.959122,527.753113 225.548111,533.699036 223.137100,539.644958 
	C223.578918,540.259399 224.020737,540.873901 224.462555,541.488342 
	C226.578979,534.302185 230.648911,533.347656 236.180405,537.016846 
M229.735550,310.456299 
	C229.239227,310.412811 228.693909,310.486481 228.255997,310.303345 
	C227.067688,309.806366 225.924881,309.200531 224.764038,308.637878 
	C225.934708,307.907593 227.053329,307.067566 228.291855,306.480408 
	C229.352798,305.977417 230.551056,305.764069 231.688583,305.422607 
	C231.595123,305.027191 231.501663,304.631805 231.408203,304.236420 
	C228.382523,304.236420 225.356842,304.236420 222.314758,304.236420 
	C222.314758,309.395294 222.314758,314.412262 222.314758,319.976105 
	C225.599106,318.952484 228.913330,320.889069 231.383041,317.382751 
	C229.337952,317.197296 227.292877,317.011841 225.247803,316.826385 
	C224.932281,316.466919 224.616760,316.107452 224.301239,315.748016 
	C225.336716,314.816620 226.332611,313.835602 227.419449,312.968567 
	C228.393311,312.191650 229.467300,311.540222 229.735550,310.456299 
M524.889648,533.542847 
	C523.178467,529.580627 521.467224,525.618347 519.756042,521.656128 
	C519.179688,521.676819 518.603333,521.697449 518.026978,521.718079 
	C515.584473,527.692627 513.141968,533.667114 510.699463,539.641663 
	C511.209442,539.892273 511.719391,540.142883 512.229370,540.393494 
	C513.236633,538.684387 514.243958,536.975342 515.067810,535.577454 
	C520.357300,533.504089 523.934082,535.625000 526.257446,540.936584 
	C526.552673,540.500061 526.847839,540.063538 527.143066,539.626953 
	C526.465637,537.846008 525.788208,536.065002 524.889648,533.542847 
M570.108582,306.441620 
	C568.201172,309.367310 566.293701,312.292999 564.635071,314.837097 
	C568.196960,316.270660 570.901550,317.359192 573.833313,318.539124 
	C574.487549,317.753479 575.788086,316.191620 577.091309,314.626556 
	C571.476746,312.566589 576.122620,307.232208 573.274475,303.610077 
	C572.365906,304.366943 571.472473,305.111237 570.108582,306.441620 
M239.205353,306.840515 
	C238.310913,311.203278 241.298828,312.140717 244.509033,313.167053 
	C245.512100,313.487762 246.184158,314.843781 247.007751,315.725861 
	C245.753387,316.190491 244.503372,317.007263 243.243469,317.022827 
	C241.927856,317.039062 240.602722,316.283875 239.281738,315.865967 
	C239.101837,316.610138 238.921921,317.354340 238.742004,318.098511 
	C241.345840,318.548859 243.993149,319.476471 246.534836,319.244904 
	C247.775223,319.131866 249.992126,316.030029 249.758316,315.698700 
	C248.382278,313.748962 246.416641,312.214539 244.640793,310.549652 
	C244.526901,310.442871 244.285721,310.458008 244.193817,310.343903 
	C243.472046,309.447693 242.772247,308.533752 242.065689,307.625244 
	C243.329239,307.291443 244.599640,306.679657 245.854233,306.710510 
	C246.884384,306.735901 247.895721,307.525024 249.804016,308.368286 
	C247.015884,302.938080 243.969757,302.583984 239.205353,306.840515 
M273.899872,312.422638 
	C273.899872,314.683014 273.899872,316.943420 273.899872,319.514496 
	C278.646515,319.453949 283.357910,320.247284 285.278412,315.540863 
	C286.240570,313.182892 285.969727,309.482269 284.721466,307.245636 
	C282.482819,303.234558 278.131622,303.845245 273.899872,304.163696 
	C273.899872,306.865112 273.899872,309.168701 273.899872,312.422638 
M555.322510,309.685852 
	C553.370728,312.978455 547.742126,313.754211 548.589600,318.849457 
	C552.171448,318.849457 555.464783,318.849457 558.758179,318.849457 
	C558.764465,318.431000 558.770752,318.012543 558.777039,317.594116 
	C556.570679,317.270844 554.364319,316.947571 553.304626,316.792328 
	C554.965576,313.409088 556.733887,310.177612 557.944336,306.749146 
	C558.060913,306.418823 554.723328,304.116730 552.971558,304.093933 
	C551.274841,304.071930 549.555237,305.810059 547.516602,306.960846 
	C550.674011,309.570129 554.241577,302.426208 555.322510,309.685852 
M518.949890,310.930695 
	C516.550903,313.335175 512.393799,314.595367 513.408386,319.753937 
	C516.738403,318.982910 520.294128,320.824524 524.601562,317.684357 
	C521.087463,317.202911 519.011536,316.918488 516.644348,316.594177 
	C519.063416,312.950348 525.031616,311.813049 522.572937,306.417938 
	C521.971313,305.097687 519.315552,303.990936 517.665894,304.070190 
	C515.949585,304.152649 514.308044,305.789551 512.633850,306.746735 
	C520.254028,306.455688 520.254028,306.455688 518.949890,310.930695 
M541.980469,309.885925 
	C541.196960,306.594330 539.661133,303.527588 535.866089,304.106079 
	C533.858154,304.412140 531.184814,306.367798 530.551392,308.185028 
	C529.719788,310.570801 530.032043,313.770844 530.953552,316.203522 
	C531.550537,317.779327 534.101990,319.498199 535.802856,319.524628 
	C537.513916,319.551239 539.743652,317.906952 540.842712,316.355042 
	C541.863525,314.913574 541.692749,312.628265 541.980469,309.885925 
M579.877441,540.087402 
	C580.478516,539.799316 581.079590,539.511230 581.680725,539.223145 
	C581.620056,538.872681 581.559448,538.522217 581.498840,538.171753 
	C578.816528,538.171753 576.134277,538.171753 573.350586,538.171753 
	C573.350586,535.793701 573.350586,534.058167 573.350586,532.227356 
	C576.026794,531.998169 578.464478,531.789429 580.902222,531.580688 
	C580.887085,531.112061 580.871948,530.643433 580.856812,530.174805 
	C578.381287,530.007324 575.905762,529.839844 573.491577,529.676514 
	C573.491577,527.660706 573.491577,525.969238 573.491577,524.350891 
	C576.458679,524.101562 579.027161,523.885803 581.595642,523.669983 
	C581.556335,523.263855 581.517029,522.857666 581.477661,522.451538 
	C578.026306,522.451538 574.574951,522.451538 571.229675,522.451538 
	C571.229675,528.471252 571.229675,534.201233 571.229675,540.098694 
	C574.036865,540.098694 576.516785,540.098694 579.877441,540.087402 
M261.481354,319.504639 
	C262.216644,315.343201 262.951935,311.181763 263.720184,306.833740 
	C264.795929,306.453979 266.246460,305.941925 267.696960,305.429840 
	C267.584473,305.144043 267.471985,304.858246 267.359528,304.572449 
	C263.391479,304.572449 259.423431,304.572449 255.455399,304.572449 
	C255.429916,304.921387 255.404419,305.270294 255.378937,305.619232 
	C256.845215,306.082520 258.311462,306.545776 259.718903,306.990479 
	C260.045593,311.108978 260.368408,315.179138 261.481354,319.504639 
M350.798431,531.393311 
	C350.798431,534.248474 350.798431,537.103638 350.798431,539.958740 
	C351.451965,539.949890 352.105499,539.941040 352.759033,539.932190 
	C352.759033,534.778381 352.759033,529.624573 352.759033,524.539917 
	C355.113220,524.137756 356.870544,523.837585 358.627869,523.537354 
	C358.574036,523.217529 358.520233,522.897705 358.466400,522.577881 
	C354.022583,522.577881 349.578766,522.577881 345.134918,522.577881 
	C345.097717,522.926453 345.060486,523.275024 345.023285,523.623596 
	C346.830750,523.908325 348.638184,524.193054 350.798462,524.533386 
	C350.798462,526.508789 350.798462,528.467346 350.798431,531.393311 
M710.687622,420.907288 
	C712.688049,423.950897 714.688416,426.994507 716.876465,430.323578 
	C716.876465,426.771698 716.876465,423.640503 716.876465,421.145905 
	C713.221863,419.392242 709.990662,417.841705 705.968323,415.911560 
	C707.798218,417.829712 709.012512,419.102600 710.687622,420.907288 
M272.417511,535.191223 
	C272.417511,530.826660 272.417511,526.462158 272.417511,522.097595 
	C271.838562,522.138977 271.259613,522.180359 270.680664,522.221680 
	C270.680664,528.158997 270.680664,534.096252 270.680664,540.033569 
	C271.123352,540.055298 271.566071,540.077026 272.008759,540.098816 
	C272.144928,538.766968 272.281097,537.435120 272.417511,535.191223 
M422.994690,425.290466 
	C422.994690,423.662323 422.994690,422.034180 422.994690,421.058960 
	C419.687592,419.803070 417.082581,418.813782 414.251129,417.738495 
	C417.200287,422.074463 419.900696,426.044739 422.994690,430.593628 
	C422.994690,428.676544 422.994690,427.395569 422.994690,425.290466 
M394.958160,533.412720 
	C394.958160,529.669006 394.958160,525.925293 394.958160,522.181580 
	C394.449432,522.206665 393.940674,522.231812 393.431946,522.256897 
	C393.431946,528.139465 393.431946,534.022034 393.431946,539.904602 
	C393.940674,539.913696 394.449432,539.922729 394.958160,539.931824 
	C394.958160,538.075867 394.958160,536.219849 394.958160,533.412720 
M560.076477,531.500061 
	C560.033447,528.350403 559.990479,525.200806 559.947449,522.051147 
	C559.488770,522.110596 559.030090,522.170044 558.571411,522.229492 
	C558.571411,528.145813 558.571411,534.062073 558.571411,539.978394 
	C559.073120,539.976440 559.574768,539.974426 560.076477,539.972473 
	C560.076477,537.467834 560.076477,534.963257 560.076477,531.500061 
M371.526581,454.505310 
	C371.526581,454.505310 371.495026,454.473328 371.526581,454.505310 
z"/>
<path fill="#FCEAE0" opacity="1.000000" stroke="none" 
	d="
M344.931213,234.936066 
	C370.769775,212.029465 399.844269,204.327591 432.140839,217.006165 
	C459.629578,227.797363 475.042328,249.846619 481.825012,277.955627 
	C486.332214,296.634430 485.775726,315.322540 478.054993,333.252472 
	C468.659668,355.071564 451.741638,368.631439 429.210602,374.656921 
	C404.768219,381.193604 380.496216,379.872437 357.949829,367.554657 
	C329.869049,352.213287 316.964447,327.602356 317.564209,295.971863 
	C318.018036,272.037140 327.574585,251.847122 344.931213,234.936066 
M353.043274,308.248840 
	C353.385742,309.705292 353.687500,311.172729 354.076813,312.616516 
	C360.690979,337.146912 384.877258,352.415955 409.265320,347.467987 
	C445.667542,340.082550 461.591736,299.425568 440.295502,268.243011 
	C424.531647,245.160995 397.054474,238.158096 375.452484,252.632263 
	C356.050629,265.632233 349.566498,284.665894 353.043274,308.248840 
M453.368347,344.861725 
	C454.332520,343.719849 455.327728,342.602570 456.256073,341.432251 
	C464.260193,331.342102 469.534698,320.036316 471.015961,307.174072 
	C471.172089,305.818451 469.674835,304.272400 468.944672,302.814697 
	C467.584717,303.904449 465.729431,304.734497 464.988068,306.148560 
	C464.022827,307.989716 464.043701,310.322906 463.464203,312.395142 
	C457.893799,332.313416 446.448792,347.342529 427.354858,356.186188 
	C425.720734,356.943054 424.877533,359.407471 423.666901,361.078674 
	C425.706970,361.213409 427.987274,362.010193 429.746765,361.371704 
	C438.813416,358.081512 446.216003,352.231232 453.368347,344.861725 
M355.061737,249.578018 
	C359.475983,246.087906 363.678772,242.278915 368.352417,239.180115 
	C375.958588,234.136932 384.517090,231.591064 393.608002,230.579880 
	C395.146393,230.408783 396.492950,228.513031 397.928101,227.414093 
	C396.400269,226.557236 394.835449,224.898331 393.350372,224.966873 
	C377.489807,225.698990 364.243469,232.356125 353.175873,243.520935 
	C350.881256,245.835724 350.616302,248.219086 355.061737,249.578018 
z"/>
<path fill="#F3E1D9" opacity="1.000000" stroke="none" 
	d="
M435.973999,428.351318 
	C435.270142,422.512268 434.582153,417.140289 433.875671,411.623962 
	C438.679382,411.623962 443.799927,411.623962 448.439331,411.623962 
	C447.592163,421.945129 446.747162,432.239929 445.879822,442.807068 
	C455.489197,442.807068 464.245728,442.807068 473.902100,442.807068 
	C473.090820,432.351105 472.303101,422.198578 471.494812,411.781250 
	C475.803009,411.781250 481.018951,411.781250 485.721863,411.781250 
	C482.985657,433.359528 482.590057,454.949463 486.009186,476.773010 
	C481.159088,476.773010 475.791992,476.773010 471.454437,476.773010 
	C472.267120,466.580170 473.077911,456.411102 473.918121,445.873169 
	C464.248108,445.873169 455.539093,445.873169 445.880432,445.873169 
	C446.759735,456.438629 447.606171,466.609039 448.459595,476.863892 
	C444.085693,476.863892 438.790192,476.863892 433.477081,476.863892 
	C437.531982,460.963470 436.043213,444.853607 435.973999,428.351318 
z"/>
<path fill="#F7E5DD" opacity="1.000000" stroke="none" 
	d="
M272.979279,411.734772 
	C280.599274,411.371979 287.994965,412.040985 294.275940,416.981689 
	C302.767181,423.661163 302.605591,433.722107 293.835327,440.030518 
	C291.305084,441.850525 288.394348,443.141541 284.973236,445.058899 
	C291.854370,455.358948 298.908966,465.918610 306.023621,476.568176 
	C302.240082,476.568176 298.065887,476.568176 295.096741,476.568176 
	C289.425262,466.492279 284.068573,456.834473 278.505005,447.297394 
	C277.911682,446.280334 276.143188,445.512329 274.861481,445.417389 
	C271.396149,445.160736 267.899353,445.329468 263.461060,445.329468 
	C264.301697,455.707306 265.140778,466.066071 266.000458,476.679352 
	C262.148621,476.679352 257.291565,476.679352 252.645142,476.679352 
	C256.321960,455.278748 256.203217,433.750397 252.680298,411.683228 
	C255.852936,411.683228 259.469299,411.683228 263.648865,412.043640 
	C264.202820,412.645996 264.193604,412.887939 264.077362,413.579285 
	C263.970367,423.942505 263.970367,433.856384 263.970367,444.437286 
	C269.287781,443.831421 274.119415,443.714630 278.737823,442.662079 
	C287.661011,440.628479 292.118073,432.687317 289.679291,424.040131 
	C287.857025,417.579041 282.090302,413.713318 273.036041,412.619293 
	C272.988556,412.129211 272.983917,411.931976 272.979279,411.734772 
z"/>
<path fill="#F7E5DD" opacity="1.000000" stroke="none" 
	d="
M577.971252,411.735260 
	C585.419495,411.359833 592.653931,412.019348 598.897400,416.645386 
	C607.964600,423.363678 607.807251,433.890625 598.505371,440.292145 
	C596.069397,441.968597 593.325623,443.197937 589.970398,445.047668 
	C596.857483,455.345856 603.912292,465.894775 611.035828,476.546448 
	C607.269958,476.546448 603.109741,476.546448 600.157715,476.546448 
	C594.473755,466.464447 589.106079,456.801697 583.529846,447.260803 
	C582.939514,446.250641 581.157593,445.508667 579.872314,445.415344 
	C576.403748,445.163422 572.904846,445.329163 568.461853,445.329163 
	C569.302063,455.704102 570.141174,466.066040 571.000793,476.680969 
	C567.146545,476.680969 562.287964,476.680969 557.729675,476.680969 
	C561.294739,455.279022 561.208069,433.752533 557.745300,411.683228 
	C560.852295,411.683228 564.468994,411.683228 568.648865,412.043640 
	C569.202820,412.646027 569.193542,412.887970 569.077332,413.579285 
	C568.970337,423.943939 568.970337,433.859192 568.970337,444.417389 
	C574.137878,443.856506 578.784912,443.700623 583.279053,442.790009 
	C591.999634,441.023132 596.382690,434.287537 594.997498,425.487305 
	C593.864929,418.291992 587.772888,413.763916 578.034302,412.619507 
	C577.983459,412.129700 577.977356,411.932495 577.971252,411.735260 
z"/>
<path fill="#F4E3DA" opacity="1.000000" stroke="none" 
	d="
M135.977859,443.015625 
	C135.622681,432.392487 135.267517,422.263824 134.900818,411.806641 
	C135.894058,411.806641 137.439819,411.806641 137.827469,411.806641 
	C137.827469,426.113770 138.080460,440.375580 137.753082,454.624084 
	C137.452866,467.690613 125.965759,477.416779 112.071152,476.984924 
	C97.961388,476.546356 88.122780,467.003845 87.753326,453.851990 
	C87.431122,442.382172 86.738823,430.920868 86.063980,419.464386 
	C85.920364,417.026398 85.145325,414.625641 84.587585,411.840118 
	C90.038452,411.840118 95.530960,411.840118 99.773643,411.840118 
	C99.196716,426.271088 98.312859,440.670746 98.159950,455.078156 
	C98.067352,463.803070 102.659447,468.480988 111.312347,469.943695 
	C114.248337,470.440033 117.279694,470.841949 120.233604,470.677734 
	C130.610687,470.100952 135.898865,464.379303 135.973694,454.005249 
	C135.998932,450.507050 135.977798,447.008545 135.977859,443.015625 
z"/>
<path fill="#F7E5DC" opacity="1.000000" stroke="none" 
	d="
M387.044128,473.251099 
	C394.252197,475.705475 401.398865,475.828430 408.390747,472.520569 
	C416.086426,468.879669 417.504944,461.742920 410.906281,456.287109 
	C405.859283,452.114136 399.785828,449.155701 394.067657,445.831299 
	C390.487640,443.749878 386.577026,442.221161 383.066620,440.039307 
	C376.203674,435.773712 373.884155,430.368042 375.862610,424.232513 
	C377.952026,417.752899 385.484833,412.704651 393.072235,413.168274 
	C391.690979,414.132782 390.686432,414.780090 389.740356,415.503906 
	C384.746948,419.324127 383.951996,425.895691 388.555908,430.242706 
	C391.507782,433.029877 395.244110,435.077789 398.845062,437.065247 
	C404.795410,440.349365 411.241638,442.825378 416.902527,446.524109 
	C427.427399,453.400787 426.911041,466.024261 416.063446,472.507507 
	C407.125580,477.849396 397.566589,478.364777 387.399689,474.648132 
	C387.057434,473.798920 387.050781,473.524994 387.044128,473.251099 
z"/>
<path fill="#F7E5DC" opacity="1.000000" stroke="none" 
	d="
M682.226624,473.829041 
	C689.178772,475.423126 696.047241,475.739471 702.681641,472.487854 
	C710.097229,468.853333 711.598511,461.846985 705.288147,456.516846 
	C700.288940,452.294220 694.238098,449.282043 688.530029,445.944763 
	C684.527832,443.604797 680.066711,441.991455 676.247925,439.407349 
	C666.837585,433.039520 666.819336,423.023621 676.233215,416.606445 
	C679.237610,414.558411 682.980103,413.593048 686.652100,412.811951 
	C676.068420,419.353668 678.637573,429.239258 687.024780,433.936676 
	C692.228943,436.851349 697.706970,439.274902 703.039124,441.964325 
	C705.405762,443.157959 707.812927,444.312866 710.035156,445.744049 
	C722.022034,453.464050 721.489685,466.670349 708.806152,473.326508 
	C700.148926,477.869751 691.034668,478.265991 681.570068,474.797546 
	C681.656250,474.228424 681.941406,474.028748 682.226624,473.829041 
z"/>
<path fill="#F7E5DC" opacity="1.000000" stroke="none" 
	d="
M195.167114,476.584473 
	C179.683182,476.861084 164.545471,476.861084 149.484024,476.861084 
	C152.810425,455.244598 152.753937,433.701965 149.536575,411.815979 
	C153.935410,411.815979 158.646957,411.815979 162.580399,411.815979 
	C161.853363,432.917114 161.123734,454.093414 160.367569,476.039673 
	C173.512131,475.302124 186.018356,476.051086 197.162338,466.760498 
	C196.532700,470.406006 196.023026,473.356964 195.167114,476.584473 
z"/>
<path fill="#F7E5DC" opacity="1.000000" stroke="none" 
	d="
M334.916748,424.857300 
	C336.635468,420.409698 338.354187,415.962067 340.523621,410.348175 
	C350.239380,433.212921 359.459167,454.910370 368.683197,476.617798 
	C364.143768,476.617798 358.685181,476.617798 353.678680,476.617798 
	C353.465393,474.112701 353.489807,471.537109 352.976105,469.073761 
	C352.301117,465.837189 351.299500,462.657166 350.269440,459.508087 
	C345.187073,443.970612 345.167389,443.977051 327.905548,445.304291 
	C324.240875,455.557373 320.507019,466.003967 316.655090,476.780945 
	C315.443024,476.780945 313.839233,476.780945 312.127899,476.780945 
	C317.059204,465.719543 321.966858,454.711121 327.273865,443.496826 
	C328.174866,443.494049 328.676483,443.697113 329.633667,443.915283 
	C334.687805,443.930359 339.286407,443.930359 344.669647,443.930359 
	C342.221161,437.382599 339.992188,431.401581 337.670807,425.456604 
	C337.642975,425.385406 336.424194,425.779327 335.600220,425.789673 
	C335.273682,425.362030 335.099548,425.106689 334.916748,424.857300 
z"/>
<path fill="#FBE9DF" opacity="1.000000" stroke="none" 
	d="
M632.169983,411.721985 
	C635.101379,411.654022 638.032715,411.586060 641.410767,411.871307 
	C641.960876,412.567047 642.064331,412.909546 642.167725,413.252075 
	C642.814636,434.433350 641.837036,455.702759 645.508240,476.861206 
	C640.150085,476.861206 634.690063,476.861206 629.031189,476.861206 
	C632.608826,455.965118 631.937500,434.953949 632.094482,413.300873 
	C632.257141,412.327026 632.267944,412.026428 632.169983,411.721985 
z"/>
<path fill="#FBE9DF" opacity="1.000000" stroke="none" 
	d="
M214.168610,411.703491 
	C217.099030,411.642059 220.029465,411.580597 223.376343,411.894531 
	C223.856262,412.837616 223.919739,413.405365 223.983200,413.973083 
	C224.486374,434.917999 223.797195,455.931335 227.336182,476.847931 
	C221.945251,476.847931 216.308441,476.847931 210.954834,476.847931 
	C214.295135,455.948486 213.854965,434.971619 214.038681,413.336914 
	C214.202682,412.340790 214.228546,412.025665 214.168610,411.703491 
z"/>
<path fill="#F4E3DA" opacity="1.000000" stroke="none" 
	d="
M523.934937,475.452209 
	C529.758484,475.118652 533.208252,471.264526 536.157776,466.920898 
	C544.410889,454.767029 544.320801,433.588074 536.093079,421.445007 
	C533.871399,418.166107 531.638794,414.894531 529.411255,411.619568 
	C528.928955,411.839386 528.446716,412.059235 527.964417,412.279083 
	C531.126221,413.749573 534.584167,414.795258 537.402222,416.759003 
	C556.740356,430.234772 555.214783,462.287689 534.589966,473.667877 
	C531.721680,475.250580 527.784241,474.895660 524.122803,475.504883 
	C523.903870,475.572052 523.934937,475.452209 523.934937,475.452209 
z"/>
<path fill="#F5E3DB" opacity="1.000000" stroke="none" 
	d="
M499.030457,463.937988 
	C491.372528,451.336121 491.112610,438.717896 498.131165,426.332977 
	C502.070801,419.381226 507.754822,413.971527 516.310120,413.091095 
	C497.070831,425.081543 496.568817,463.233368 516.778564,475.459747 
	C511.200653,476.058105 505.286224,472.279205 499.030457,463.937988 
z"/>
<path fill="#DDCEC9" opacity="1.000000" stroke="none" 
	d="
M211.930817,538.096924 
	C211.928787,534.371399 211.928787,531.047668 211.928787,526.434082 
	C209.541473,529.690369 207.785004,532.086182 205.775467,534.827148 
	C203.951859,532.343018 202.344650,530.153625 200.035187,527.007629 
	C199.737610,532.032715 199.498672,536.067688 199.259720,540.102661 
	C198.766769,540.087463 198.273804,540.072205 197.780853,540.056946 
	C197.780853,534.200317 197.780853,528.343750 197.780853,520.685486 
	C200.831528,524.449768 203.222885,527.400513 205.838715,530.628235 
	C208.060196,527.716431 210.376938,524.679810 212.693680,521.643188 
	C213.198883,521.770447 213.704102,521.897705 214.209305,522.024963 
	C214.209305,527.692139 214.209305,533.359314 214.209305,539.026489 
	C213.450485,538.850586 212.691666,538.674683 211.930817,538.096924 
z"/>
<path fill="#E8D8D1" opacity="1.000000" stroke="none" 
	d="
M296.014954,526.240295 
	C296.141663,524.535522 296.268280,523.277161 296.394928,522.018799 
	C296.879974,522.056274 297.365051,522.093750 297.850098,522.131226 
	C297.850098,528.032288 297.850098,533.933350 297.850098,539.834412 
	C297.542542,540.093628 297.235016,540.352783 296.927460,540.611938 
	C293.475525,536.268188 290.023560,531.924500 286.571625,527.580750 
	C286.179871,527.583496 285.788147,527.586243 285.396423,527.589050 
	C285.396423,531.749329 285.396423,535.909607 285.396423,540.069885 
	C284.833374,540.055237 284.270294,540.040649 283.707245,540.026062 
	C283.707245,534.155334 283.707245,528.284607 283.707245,522.413940 
	C283.998169,522.102112 284.289124,521.790283 284.580048,521.478516 
	C288.120178,525.907898 291.660339,530.337280 296.014893,535.785583 
	C296.014893,532.080933 296.014893,529.383789 296.014954,526.240295 
z"/>
<path fill="#E8D8D1" opacity="1.000000" stroke="none" 
	d="
M420.896240,537.476929 
	C420.122192,541.796326 418.645325,540.238403 417.238464,538.353638 
	C414.463715,534.636353 411.744659,530.877502 407.855255,527.189087 
	C407.855255,531.476501 407.855255,535.763916 407.855255,540.051392 
	C407.341064,540.042114 406.826874,540.032837 406.312683,540.023560 
	C406.312683,534.126465 406.312683,528.229370 406.312683,520.537170 
	C410.647369,525.972961 414.181854,530.405273 417.716370,534.837646 
	C418.108734,534.773865 418.501129,534.710083 418.893494,534.646301 
	C418.893494,530.460327 418.893494,526.274292 418.893494,522.088257 
	C419.561676,522.094666 420.229858,522.101013 420.898041,522.107422 
	C420.898041,527.083191 420.898041,532.059021 420.896240,537.476929 
z"/>
<path fill="#D5C7C4" opacity="1.000000" stroke="none" 
	d="
M379.708466,526.634888 
	C379.837555,524.789490 379.963074,523.423401 380.088562,522.057373 
	C380.513489,522.066162 380.938385,522.075012 381.363281,522.083801 
	C381.363281,528.037537 381.363281,533.991272 381.363281,539.945007 
	C381.026611,540.018799 380.689911,540.092590 380.353241,540.166382 
	C380.004669,537.544556 379.656128,534.922729 379.284729,532.129089 
	C376.274536,532.129089 373.315430,532.129089 369.953857,532.129089 
	C369.737610,534.842712 369.528809,537.463135 369.320007,540.083496 
	C368.833313,540.060730 368.346619,540.037964 367.859924,540.015198 
	C367.859924,534.096069 367.859924,528.176941 367.859924,522.257812 
	C368.216522,522.175293 368.573151,522.092834 368.929749,522.010315 
	C369.345001,524.484741 369.760254,526.959106 370.251160,529.884338 
	C373.371155,528.430298 377.741852,532.687988 379.708466,526.634888 
z"/>
<path fill="#E8D8D1" opacity="1.000000" stroke="none" 
	d="
M320.252563,537.600830 
	C321.516510,536.314758 322.424072,535.232971 323.689117,533.725098 
	C321.651825,533.055847 320.305725,532.613647 318.959595,532.171387 
	C319.003296,531.881592 319.046967,531.591736 319.090637,531.301880 
	C321.043182,531.301880 322.995728,531.301880 325.186768,531.301880 
	C325.523315,535.827271 324.060608,539.094299 319.283417,540.089478 
	C314.598297,541.065552 310.354431,538.843018 308.701080,534.708008 
	C306.942932,530.310913 308.643768,525.308044 312.668793,523.037476 
	C316.684845,520.771973 320.671906,521.629639 324.104462,525.707092 
	C321.035217,525.184875 318.120758,524.035828 315.400757,524.388123 
	C311.844604,524.848816 310.289520,527.922546 310.320923,531.402100 
	C310.364227,536.203857 313.821503,538.428528 320.252563,537.600830 
z"/>
<path fill="#E4D4CE" opacity="1.000000" stroke="none" 
	d="
M436.761169,537.636963 
	C440.833466,538.506714 444.164429,538.422791 445.547333,533.552917 
	C444.134644,533.105103 442.768555,532.672058 441.402466,532.238953 
	C441.435242,531.942505 441.467987,531.646057 441.500763,531.349609 
	C443.584290,531.349609 445.667847,531.349609 447.931702,531.349609 
	C447.809998,536.036804 446.299347,539.516968 441.149994,540.197571 
	C436.567047,540.803345 432.480133,538.525452 431.079742,534.669739 
	C429.461395,530.213684 431.215424,525.168762 435.135620,523.004395 
	C439.207062,520.756592 443.163910,521.617920 447.387421,526.562317 
	C441.611389,524.388428 436.174774,521.591980 433.368927,528.393188 
	C431.947876,531.837708 432.766693,535.311523 436.761169,537.636963 
z"/>
<path fill="#DDCEC9" opacity="1.000000" stroke="none" 
	d="
M494.246796,532.456421 
	C493.944580,534.271179 493.944580,535.760681 493.944580,537.633911 
	C496.654755,537.890991 499.390839,538.150513 502.126953,538.410034 
	C502.098145,538.819702 502.069336,539.229370 502.040527,539.639038 
	C498.590363,539.639038 495.140198,539.639038 491.430939,539.639038 
	C491.430939,534.025574 491.430939,528.304199 491.430939,522.467896 
	C495.090210,522.467896 498.508789,522.467896 501.927338,522.467896 
	C501.956390,522.904968 501.985413,523.342102 502.014465,523.779175 
	C499.436859,523.985413 496.859222,524.191711 494.056946,524.415955 
	C494.056946,526.104492 494.056946,527.713074 494.056946,529.513123 
	C496.437103,529.747620 498.795380,529.979919 501.153656,530.212280 
	C501.171448,530.674438 501.189240,531.136597 501.207031,531.598816 
	C498.987701,531.776184 496.768341,531.953613 494.246796,532.456421 
z"/>
<path fill="#D5C7C4" opacity="1.000000" stroke="none" 
	d="
M256.456055,533.552856 
	C258.210602,535.712280 259.736267,537.605042 261.261963,539.497864 
	C260.893738,539.858887 260.525543,540.219849 260.157318,540.580872 
	C258.782990,539.262756 257.350647,537.998901 256.050568,536.611206 
	C254.746262,535.218933 253.573807,533.703186 251.547165,531.295349 
	C251.007690,535.080261 250.642944,537.639160 250.278214,540.197998 
	C249.836823,540.148071 249.395416,540.098145 248.954025,540.048218 
	C248.954025,534.093872 248.954025,528.139526 248.954025,522.185181 
	C249.377197,522.120605 249.800369,522.056091 250.223541,521.991516 
	C250.535751,524.187134 250.847961,526.382690 251.229355,529.064880 
	C254.147736,526.481262 256.942413,524.007202 259.737061,521.533081 
	C260.096313,521.896606 260.455566,522.260193 260.814819,522.623718 
	C258.597198,525.059570 256.379578,527.495422 253.923126,530.193604 
	C254.710587,531.250549 255.468903,532.268433 256.456055,533.552856 
z"/>
<path fill="#E4D4CE" opacity="1.000000" stroke="none" 
	d="
M538.102295,526.930359 
	C539.599121,528.229980 541.007568,529.295349 542.578369,529.997498 
	C545.317993,531.221924 548.767822,532.086182 547.931091,535.935852 
	C547.576965,537.565308 545.473389,539.561890 543.800720,539.999512 
	C540.468323,540.871338 536.957336,540.623718 535.116638,535.692871 
	C537.627136,536.722656 539.459045,537.994873 541.343445,538.078064 
	C542.784790,538.141663 544.292480,536.701721 545.770630,535.930542 
	C544.775208,534.802429 543.797913,533.657288 542.768738,532.560791 
	C542.566040,532.344788 542.170166,532.292297 541.852173,532.205017 
	C538.930664,531.403809 535.514587,530.706299 536.020752,526.784546 
	C536.238220,525.100342 538.033569,522.819153 539.614258,522.278870 
	C542.870056,521.166138 546.173645,521.738037 548.059143,525.679626 
	C544.680725,526.896912 540.719543,520.162903 538.102295,526.930359 
z"/>
<path fill="#E4D4CE" opacity="1.000000" stroke="none" 
	d="
M468.455688,532.919800 
	C469.914673,536.456726 468.979645,539.078613 465.690613,539.932556 
	C462.100708,540.864563 458.363434,540.896667 455.987793,535.559753 
	C458.456818,536.673706 460.089600,537.973389 461.742279,537.999084 
	C463.425171,538.025391 465.127625,536.797791 466.821533,536.119263 
	C465.742737,534.885132 464.682312,533.633972 463.567841,532.432922 
	C463.372131,532.222107 462.869934,532.310913 462.644684,532.109741 
	C460.721466,530.392029 458.404816,528.884155 457.177032,526.753784 
	C456.789154,526.080811 459.013184,523.050537 460.613953,522.265259 
	C463.705231,520.748718 466.445679,522.127625 468.478485,526.242126 
	C467.258331,525.580078 466.046539,524.399231 464.816040,524.379395 
	C463.038452,524.350708 461.247253,525.163696 459.461884,525.617615 
	C460.472412,527.010071 461.244446,528.713806 462.553528,529.716553 
	C464.207672,530.983582 466.299316,531.679504 468.455688,532.919800 
z"/>
<path fill="#E4D4CE" opacity="1.000000" stroke="none" 
	d="
M603.769470,529.422974 
	C602.770508,530.769958 601.910828,531.755310 600.885742,532.930298 
	C601.982544,535.084167 603.128174,537.333984 604.511902,540.051331 
	C599.383972,539.855957 600.734253,531.424683 594.680542,533.411377 
	C594.459351,535.637268 594.243896,537.806213 594.028381,539.975098 
	C593.623291,539.973877 593.218201,539.972656 592.813110,539.971436 
	C592.813110,534.209900 592.813110,528.448303 592.813110,522.588379 
	C600.658325,520.917725 603.650330,522.589844 603.769470,529.422974 
M598.882568,524.222290 
	C597.468262,524.222290 596.053894,524.222290 594.572388,524.222290 
	C594.572388,526.635498 594.572388,528.578491 594.572388,531.812195 
	C597.254944,530.708130 599.443604,530.041443 601.262756,528.823120 
	C601.558533,528.625061 600.218872,525.984863 598.882568,524.222290 
z"/>
<path fill="#E8D8D1" opacity="1.000000" stroke="none" 
	d="
M236.053162,536.630249 
	C230.648911,533.347656 226.578979,534.302185 224.462555,541.488342 
	C224.020737,540.873901 223.578918,540.259399 223.137100,539.644958 
	C225.548111,533.699036 227.959122,527.753113 230.370132,521.807251 
	C230.951141,521.744873 231.532150,521.682495 232.113159,521.620178 
	C234.656403,527.569458 237.199631,533.518738 239.742859,539.467957 
	C239.339218,539.728760 238.935577,539.989502 238.531937,540.250305 
	C237.748093,539.172485 236.964249,538.094666 236.053162,536.630249 
M233.612793,530.400635 
	C232.929779,528.895142 232.246765,527.389648 231.229401,525.147217 
	C230.104645,528.140137 229.277893,530.340149 228.451126,532.540100 
	C228.796677,532.900940 229.142227,533.261719 229.487778,533.622498 
	C230.955322,532.795227 232.422882,531.967957 233.612793,530.400635 
z"/>
<path fill="#D5C7C4" opacity="1.000000" stroke="none" 
	d="
M230.116333,310.644836 
	C229.467300,311.540222 228.393311,312.191650 227.419449,312.968567 
	C226.332611,313.835602 225.336716,314.816620 224.301239,315.748016 
	C224.616760,316.107452 224.932281,316.466919 225.247803,316.826385 
	C227.292877,317.011841 229.337952,317.197296 231.383041,317.382751 
	C228.913330,320.889069 225.599106,318.952484 222.314758,319.976105 
	C222.314758,314.412262 222.314758,309.395294 222.314758,304.236420 
	C225.356842,304.236420 228.382523,304.236420 231.408203,304.236420 
	C231.501663,304.631805 231.595123,305.027191 231.688583,305.422607 
	C230.551056,305.764069 229.352798,305.977417 228.291855,306.480408 
	C227.053329,307.067566 225.934708,307.907593 224.764038,308.637878 
	C225.924881,309.200531 227.067688,309.806366 228.255997,310.303345 
	C228.693909,310.486481 229.239227,310.412811 230.116333,310.644836 
z"/>
<path fill="#E8D8D1" opacity="1.000000" stroke="none" 
	d="
M525.000244,533.913452 
	C525.788208,536.065002 526.465637,537.846008 527.143066,539.626953 
	C526.847839,540.063538 526.552673,540.500061 526.257446,540.936584 
	C523.934082,535.625000 520.357300,533.504089 515.067810,535.577454 
	C514.243958,536.975342 513.236633,538.684387 512.229370,540.393494 
	C511.719391,540.142883 511.209442,539.892273 510.699463,539.641663 
	C513.141968,533.667114 515.584473,527.692627 518.026978,521.718079 
	C518.603333,521.697449 519.179688,521.676819 519.756042,521.656128 
	C521.467224,525.618347 523.178467,529.580627 525.000244,533.913452 
M519.828918,526.950745 
	C518.407654,528.676880 516.986328,530.403015 514.986633,532.831543 
	C518.107056,532.831543 519.888611,532.831543 522.050476,532.831543 
	C521.327148,530.946106 520.695984,529.301025 519.828918,526.950745 
z"/>
<path fill="#F3E1D9" opacity="1.000000" stroke="none" 
	d="
M570.343811,306.148590 
	C571.472473,305.111237 572.365906,304.366943 573.274475,303.610077 
	C576.122620,307.232208 571.476746,312.566589 577.091309,314.626556 
	C575.788086,316.191620 574.487549,317.753479 573.833313,318.539124 
	C570.901550,317.359192 568.196960,316.270660 564.635071,314.837097 
	C566.293701,312.292999 568.201172,309.367310 570.343811,306.148590 
z"/>
<path fill="#E4D4CE" opacity="1.000000" stroke="none" 
	d="
M239.395508,306.488251 
	C243.969757,302.583984 247.015884,302.938080 249.804016,308.368286 
	C247.895721,307.525024 246.884384,306.735901 245.854233,306.710510 
	C244.599640,306.679657 243.329239,307.291443 242.065674,307.625244 
	C242.772247,308.533752 243.472046,309.447693 244.193817,310.343903 
	C244.285721,310.458008 244.526901,310.442871 244.640793,310.549652 
	C246.416641,312.214539 248.382278,313.748962 249.758316,315.698700 
	C249.992126,316.030029 247.775223,319.131866 246.534836,319.244904 
	C243.993149,319.476471 241.345840,318.548859 238.742004,318.098511 
	C238.921921,317.354340 239.101837,316.610138 239.281738,315.865967 
	C240.602722,316.283875 241.927856,317.039062 243.243469,317.022827 
	C244.503372,317.007263 245.753387,316.190491 247.007751,315.725861 
	C246.184158,314.843781 245.512100,313.487762 244.509033,313.167053 
	C241.298828,312.140717 238.310913,311.203278 239.395508,306.488251 
z"/>
<path fill="#F3E1D9" opacity="1.000000" stroke="none" 
	d="
M273.899872,311.947449 
	C273.899872,309.168701 273.899872,306.865112 273.899872,304.163696 
	C278.131622,303.845245 282.482819,303.234558 284.721466,307.245636 
	C285.969727,309.482269 286.240570,313.182892 285.278412,315.540863 
	C283.357910,320.247284 278.646515,319.453949 273.899872,319.514496 
	C273.899872,316.943420 273.899872,314.683014 273.899872,311.947449 
M276.317108,315.055725 
	C277.828735,315.581635 280.356598,316.903198 280.675812,316.495483 
	C282.046783,314.744537 283.756897,312.357849 283.509949,310.438721 
	C283.067596,307.001007 280.131287,306.037445 276.308105,306.735413 
	C276.308105,309.315857 276.308105,311.759705 276.317108,315.055725 
z"/>
<path fill="#DDCEC9" opacity="1.000000" stroke="none" 
	d="
M555.512878,309.284607 
	C554.241577,302.426208 550.674011,309.570129 547.516602,306.960846 
	C549.555237,305.810059 551.274841,304.071930 552.971558,304.093933 
	C554.723328,304.116730 558.060913,306.418823 557.944336,306.749146 
	C556.733887,310.177612 554.965576,313.409088 553.304626,316.792328 
	C554.364319,316.947571 556.570679,317.270844 558.777039,317.594116 
	C558.770752,318.012543 558.764465,318.431000 558.758179,318.849457 
	C555.464783,318.849457 552.171448,318.849457 548.589600,318.849457 
	C547.742126,313.754211 553.370728,312.978455 555.512878,309.284607 
z"/>
<path fill="#DDCEC9" opacity="1.000000" stroke="none" 
	d="
M519.243347,310.646851 
	C520.254028,306.455688 520.254028,306.455688 512.633850,306.746735 
	C514.308044,305.789551 515.949585,304.152649 517.665894,304.070190 
	C519.315552,303.990936 521.971313,305.097687 522.572937,306.417938 
	C525.031616,311.813049 519.063416,312.950348 516.644348,316.594177 
	C519.011536,316.918488 521.087463,317.202911 524.601562,317.684357 
	C520.294128,320.824524 516.738403,318.982910 513.408386,319.753937 
	C512.393799,314.595367 516.550903,313.335175 519.243347,310.646851 
z"/>
<path fill="#E4D4CE" opacity="1.000000" stroke="none" 
	d="
M542.013550,310.300201 
	C541.692749,312.628265 541.863525,314.913574 540.842712,316.355042 
	C539.743652,317.906952 537.513916,319.551239 535.802856,319.524628 
	C534.101990,319.498199 531.550537,317.779327 530.953552,316.203522 
	C530.032043,313.770844 529.719788,310.570801 530.551392,308.185028 
	C531.184814,306.367798 533.858154,304.412140 535.866089,304.106079 
	C539.661133,303.527588 541.196960,306.594330 542.013550,310.300201 
M536.336121,306.240387 
	C532.486572,307.870728 530.877441,311.256500 532.910706,314.629700 
	C533.629089,315.821503 536.629395,317.097260 537.325378,316.592773 
	C540.489502,314.299408 540.076355,310.999664 538.469971,307.822357 
	C538.196533,307.281555 537.526123,306.941467 536.336121,306.240387 
z"/>
<path fill="#C3B8B7" opacity="1.000000" stroke="none" 
	d="
M224.212738,413.632324 
	C223.919739,413.405365 223.856262,412.837616 223.807434,411.981842 
	C230.385040,411.693787 236.948013,411.693787 243.918854,411.693787 
	C244.371277,414.400452 244.839371,417.200867 245.531830,421.343536 
	C239.034424,414.493408 232.280884,412.283478 224.212738,413.632324 
z"/>
<path fill="#F3E1D9" opacity="1.000000" stroke="none" 
	d="
M579.437012,540.093018 
	C576.516785,540.098694 574.036865,540.098694 571.229675,540.098694 
	C571.229675,534.201233 571.229675,528.471252 571.229675,522.451538 
	C574.574951,522.451538 578.026306,522.451538 581.477661,522.451538 
	C581.517029,522.857666 581.556335,523.263855 581.595642,523.669983 
	C579.027161,523.885803 576.458679,524.101562 573.491577,524.350891 
	C573.491577,525.969238 573.491577,527.660706 573.491577,529.676514 
	C575.905762,529.839844 578.381287,530.007324 580.856812,530.174805 
	C580.871948,530.643433 580.887085,531.112061 580.902222,531.580688 
	C578.464478,531.789429 576.026794,531.998169 573.350586,532.227356 
	C573.350586,534.058167 573.350586,535.793701 573.350586,538.171753 
	C576.134277,538.171753 578.816528,538.171753 581.498840,538.171753 
	C581.559448,538.522217 581.620056,538.872681 581.680725,539.223145 
	C581.079590,539.511230 580.478516,539.799316 579.437012,540.093018 
z"/>
<path fill="#C3B8B7" opacity="1.000000" stroke="none" 
	d="
M631.724121,411.534241 
	C632.267944,412.026428 632.257141,412.327026 632.053833,412.836914 
	C624.030029,412.660309 616.804382,414.219452 610.650940,421.988892 
	C611.256836,418.197296 611.291260,415.706696 612.153503,413.546509 
	C612.584106,412.467682 614.502625,411.402679 615.791077,411.348389 
	C620.944336,411.131073 626.114380,411.312561 631.724121,411.534241 
z"/>
<path fill="#DDCEC9" opacity="1.000000" stroke="none" 
	d="
M261.086304,319.376953 
	C260.368408,315.179138 260.045593,311.108978 259.718903,306.990479 
	C258.311462,306.545776 256.845215,306.082520 255.378937,305.619232 
	C255.404419,305.270294 255.429916,304.921387 255.455399,304.572449 
	C259.423431,304.572449 263.391479,304.572449 267.359528,304.572449 
	C267.471985,304.858246 267.584473,305.144043 267.696960,305.429840 
	C266.246460,305.941925 264.795929,306.453979 263.720184,306.833740 
	C262.951935,311.181763 262.216644,315.343201 261.086304,319.376953 
z"/>
<path fill="#F3E1D9" opacity="1.000000" stroke="none" 
	d="
M350.798462,530.909607 
	C350.798462,528.467346 350.798462,526.508789 350.798462,524.533386 
	C348.638184,524.193054 346.830750,523.908325 345.023285,523.623596 
	C345.060486,523.275024 345.097717,522.926453 345.134918,522.577881 
	C349.578766,522.577881 354.022583,522.577881 358.466400,522.577881 
	C358.520233,522.897705 358.574036,523.217529 358.627869,523.537354 
	C356.870544,523.837585 355.113220,524.137756 352.759033,524.539917 
	C352.759033,529.624573 352.759033,534.778381 352.759033,539.932190 
	C352.105499,539.941040 351.451965,539.949890 350.798431,539.958740 
	C350.798431,537.103638 350.798431,534.248474 350.798462,530.909607 
z"/>
<path fill="#F5E3DB" opacity="1.000000" stroke="none" 
	d="
M647.149719,411.691650 
	C651.925232,411.691650 656.700745,411.691650 661.833130,411.691650 
	C662.490356,414.817657 663.162109,418.012665 664.054932,422.259125 
	C659.730835,415.940674 654.209473,413.629639 647.472168,412.714142 
	C647.238281,412.197632 647.247559,411.946625 647.149719,411.691650 
z"/>
<path fill="#F3E1D9" opacity="1.000000" stroke="none" 
	d="
M208.957138,412.851715 
	C202.789246,413.698303 197.035690,415.374878 192.656281,420.665985 
	C193.233109,417.745178 193.809921,414.824341 194.469177,411.486023 
	C199.079941,411.486023 203.521469,411.486023 208.390640,411.776367 
	C208.908356,412.320618 208.954636,412.582306 208.957138,412.851715 
z"/>
<path fill="#C3B8B7" opacity="1.000000" stroke="none" 
	d="
M386.798309,473.067871 
	C387.050781,473.524994 387.057434,473.798920 387.050568,474.483643 
	C378.872437,472.041077 373.891052,466.238678 370.747559,457.091431 
	C374.832611,464.700836 379.991852,469.507080 386.798309,473.067871 
z"/>
<path fill="#E8D8D1" opacity="1.000000" stroke="none" 
	d="
M710.457214,420.641357 
	C709.012512,419.102600 707.798218,417.829712 705.968323,415.911560 
	C709.990662,417.841705 713.221863,419.392242 716.876465,421.145905 
	C716.876465,423.640503 716.876465,426.771698 716.876465,430.323578 
	C714.688416,426.994507 712.688049,423.950897 710.457214,420.641357 
z"/>
<path fill="#DDCEC9" opacity="1.000000" stroke="none" 
	d="
M272.417389,535.647217 
	C272.281097,537.435120 272.144928,538.766968 272.008759,540.098816 
	C271.566071,540.077026 271.123352,540.055298 270.680664,540.033569 
	C270.680664,534.096252 270.680664,528.158997 270.680664,522.221680 
	C271.259613,522.180359 271.838562,522.138977 272.417511,522.097595 
	C272.417511,526.462158 272.417511,530.826660 272.417389,535.647217 
z"/>
<path fill="#E4D4CE" opacity="1.000000" stroke="none" 
	d="
M422.994690,425.702545 
	C422.994690,427.395569 422.994690,428.676544 422.994690,430.593628 
	C419.900696,426.044739 417.200287,422.074463 414.251129,417.738495 
	C417.082581,418.813782 419.687592,419.803070 422.994690,421.058960 
	C422.994690,422.034180 422.994690,423.662323 422.994690,425.702545 
z"/>
<path fill="#D5C7C4" opacity="1.000000" stroke="none" 
	d="
M334.652924,425.092621 
	C335.099548,425.106689 335.273682,425.362030 335.548157,426.144257 
	C333.497528,432.410248 331.337830,438.155212 329.178131,443.900208 
	C328.676483,443.697113 328.174866,443.494049 327.425568,443.176086 
	C329.581635,437.150116 331.985382,431.239044 334.652924,425.092621 
z"/>
<path fill="#F3E1D9" opacity="1.000000" stroke="none" 
	d="
M394.958160,533.888306 
	C394.958160,536.219849 394.958160,538.075867 394.958160,539.931824 
	C394.449432,539.922729 393.940674,539.913696 393.431946,539.904602 
	C393.431946,534.022034 393.431946,528.139465 393.431946,522.256897 
	C393.940674,522.231812 394.449432,522.206665 394.958160,522.181580 
	C394.958160,525.925293 394.958160,529.669006 394.958160,533.888306 
z"/>
<path fill="#FCEAE0" opacity="1.000000" stroke="none" 
	d="
M560.076477,531.979370 
	C560.076477,534.963257 560.076477,537.467834 560.076477,539.972473 
	C559.574768,539.974426 559.073120,539.976440 558.571411,539.978394 
	C558.571411,534.062073 558.571411,528.145813 558.571411,522.229492 
	C559.030090,522.170044 559.488770,522.110596 559.947449,522.051147 
	C559.990479,525.200806 560.033447,528.350403 560.076477,531.979370 
z"/>
<path fill="#E4D4CE" opacity="1.000000" stroke="none" 
	d="
M670.092346,466.954956 
	C666.886414,463.875641 663.251953,460.984253 665.287048,455.623688 
	C667.062683,458.863129 668.854797,462.132782 670.709229,465.897766 
	C670.602112,466.649200 670.375732,466.836487 670.092346,466.954956 
z"/>
<path fill="#C3B8B7" opacity="1.000000" stroke="none" 
	d="
M670.221802,467.261536 
	C670.375732,466.836487 670.602112,466.649200 670.883667,466.200317 
	C674.595459,468.437286 678.195190,470.867035 682.010742,473.562927 
	C681.941406,474.028748 681.656250,474.228424 681.219360,474.640381 
	C677.495605,472.424469 673.923462,469.996307 670.221802,467.261536 
z"/>
<path fill="#7F7D85" opacity="1.000000" stroke="none" 
	d="
M569.184326,413.129883 
	C569.193542,412.887970 569.202820,412.646027 569.111023,412.055237 
	C571.788635,411.569336 574.567383,411.432281 577.658691,411.515259 
	C577.977356,411.932495 577.983459,412.129700 577.596130,412.723816 
	C574.529846,413.123779 571.857117,413.126831 569.184326,413.129883 
z"/>
<path fill="#7F7D85" opacity="1.000000" stroke="none" 
	d="
M272.665497,411.515167 
	C272.983917,411.931976 272.988556,412.129211 272.597839,412.723572 
	C269.529785,413.123749 266.857056,413.126801 264.184357,413.129883 
	C264.193604,412.887939 264.202820,412.645996 264.111023,412.055237 
	C266.790558,411.569458 269.571136,411.432495 272.665497,411.515167 
z"/>
<path fill="#C3B8B7" opacity="1.000000" stroke="none" 
	d="
M646.729492,411.515259 
	C647.247559,411.946625 647.238281,412.197632 647.087402,412.633667 
	C645.691895,412.909027 644.330994,412.995331 642.568848,413.166870 
	C642.064331,412.909546 641.960876,412.567047 641.842896,411.956055 
	C643.321960,411.571381 644.815613,411.455109 646.729492,411.515259 
z"/>
<path fill="#C3B8B7" opacity="1.000000" stroke="none" 
	d="
M209.368240,412.922180 
	C208.954636,412.582306 208.908356,412.320618 208.834442,411.867004 
	C210.344650,411.558624 211.838715,411.449951 213.750687,411.522400 
	C214.228546,412.025665 214.202682,412.340790 214.013824,412.875244 
	C212.550873,413.065308 211.165100,413.028961 209.368240,412.922180 
z"/>
<path fill="#162139" opacity="1.000000" stroke="none" 
	d="
M523.496521,475.339783 
	C523.934937,475.452209 523.903870,475.572052 523.866943,475.617004 
	C522.241211,476.084839 520.652344,476.507751 519.063477,476.930695 
	C518.991455,476.362915 518.919434,475.795166 518.847412,475.227386 
	C520.250977,475.227386 521.654541,475.227386 523.496521,475.339783 
z"/>
<path fill="#C3B8B7" opacity="1.000000" stroke="none" 
	d="
M371.510803,454.489319 
	C371.495026,454.473328 371.526581,454.505310 371.510803,454.489319 
z"/>
<path fill="#172239" opacity="1.000000" stroke="none" 
	d="
M352.990265,307.821960 
	C349.566498,284.665894 356.050629,265.632233 375.452484,252.632263 
	C397.054474,238.158096 424.531647,245.160995 440.295502,268.243011 
	C461.591736,299.425568 445.667542,340.082550 409.265320,347.467987 
	C384.877258,352.415955 360.690979,337.146912 354.076813,312.616516 
	C353.687500,311.172729 353.385742,309.705292 352.990265,307.821960 
M426.135895,278.467560 
	C412.804291,258.783997 386.693085,259.172455 375.232941,279.224792 
	C368.761993,290.547241 370.183716,305.331482 378.678406,315.053314 
	C387.091309,324.681549 399.889313,327.847229 411.727783,323.228333 
	C428.860718,316.543762 435.577942,296.561829 426.135895,278.467560 
z"/>
<path fill="#1E283E" opacity="1.000000" stroke="none" 
	d="
M453.118042,345.114502 
	C446.216003,352.231232 438.813416,358.081512 429.746765,361.371704 
	C427.987274,362.010193 425.706970,361.213409 423.666901,361.078674 
	C424.877533,359.407471 425.720734,356.943054 427.354858,356.186188 
	C446.448792,347.342529 457.893799,332.313416 463.464203,312.395142 
	C464.043701,310.322906 464.022827,307.989716 464.988068,306.148560 
	C465.729431,304.734497 467.584717,303.904449 468.944672,302.814697 
	C469.674835,304.272400 471.172089,305.818451 471.015961,307.174072 
	C469.534698,320.036316 464.260193,331.342102 456.256073,341.432251 
	C455.327728,342.602570 454.332520,343.719849 453.118042,345.114502 
z"/>
<path fill="#1E283E" opacity="1.000000" stroke="none" 
	d="
M354.693298,249.602753 
	C350.616302,248.219086 350.881256,245.835724 353.175873,243.520935 
	C364.243469,232.356125 377.489807,225.698990 393.350372,224.966873 
	C394.835449,224.898331 396.400269,226.557236 397.928101,227.414093 
	C396.492950,228.513031 395.146393,230.408783 393.608002,230.579880 
	C384.517090,231.591064 375.958588,234.136932 368.352417,239.180115 
	C363.678772,242.278915 359.475983,246.087906 354.693298,249.602753 
z"/>
<path fill="#162139" opacity="1.000000" stroke="none" 
	d="
M264.077362,413.579254 
	C266.857056,413.126801 269.529785,413.123749 272.640686,413.016388 
	C282.090302,413.713318 287.857025,417.579041 289.679291,424.040131 
	C292.118073,432.687317 287.661011,440.628479 278.737823,442.662079 
	C274.119415,443.714630 269.287781,443.831421 263.970367,444.437286 
	C263.970367,433.856384 263.970367,423.942505 264.077362,413.579254 
z"/>
<path fill="#162139" opacity="1.000000" stroke="none" 
	d="
M569.077332,413.579285 
	C571.857117,413.126831 574.529846,413.123779 577.640808,413.016418 
	C587.772888,413.763916 593.864929,418.291992 594.997498,425.487305 
	C596.382690,434.287537 591.999634,441.023132 583.279053,442.790009 
	C578.784912,443.700623 574.137878,443.856506 568.970337,444.417389 
	C568.970337,433.859192 568.970337,423.943939 569.077332,413.579285 
z"/>
<path fill="#1E283E" opacity="1.000000" stroke="none" 
	d="
M329.633667,443.915283 
	C331.337830,438.155212 333.497528,432.410248 335.709259,426.310669 
	C336.424194,425.779327 337.642975,425.385406 337.670807,425.456604 
	C339.992188,431.401581 342.221161,437.382599 344.669647,443.930359 
	C339.286407,443.930359 334.687805,443.930359 329.633667,443.915283 
z"/>
<path fill="#1E283E" opacity="1.000000" stroke="none" 
	d="
M599.258789,524.347839 
	C600.218872,525.984863 601.558533,528.625061 601.262756,528.823120 
	C599.443604,530.041443 597.254944,530.708130 594.572388,531.812195 
	C594.572388,528.578491 594.572388,526.635498 594.572388,524.222290 
	C596.053894,524.222290 597.468262,524.222290 599.258789,524.347839 
z"/>
<path fill="#1E283E" opacity="1.000000" stroke="none" 
	d="
M233.751617,530.770630 
	C232.422882,531.967957 230.955322,532.795227 229.487778,533.622498 
	C229.142227,533.261719 228.796677,532.900940 228.451126,532.540100 
	C229.277893,530.340149 230.104645,528.140137 231.229401,525.147217 
	C232.246765,527.389648 232.929779,528.895142 233.751617,530.770630 
z"/>
<path fill="#1E283E" opacity="1.000000" stroke="none" 
	d="
M519.946899,527.303345 
	C520.695984,529.301025 521.327148,530.946106 522.050476,532.831543 
	C519.888611,532.831543 518.107056,532.831543 514.986633,532.831543 
	C516.986328,530.403015 518.407654,528.676880 519.946899,527.303345 
z"/>
<path fill="#1E283E" opacity="1.000000" stroke="none" 
	d="
M276.312622,314.629639 
	C276.308105,311.759705 276.308105,309.315857 276.308105,306.735413 
	C280.131287,306.037445 283.067596,307.001007 283.509949,310.438721 
	C283.756897,312.357849 282.046783,314.744537 280.675812,316.495483 
	C280.356598,316.903198 277.828735,315.581635 276.312622,314.629639 
z"/>
<path fill="#1E283E" opacity="1.000000" stroke="none" 
	d="
M536.687622,306.374512 
	C537.526123,306.941467 538.196533,307.281555 538.469971,307.822357 
	C540.076355,310.999664 540.489502,314.299408 537.325378,316.592773 
	C536.629395,317.097260 533.629089,315.821503 532.910706,314.629700 
	C530.877441,311.256500 532.486572,307.870728 536.687622,306.374512 
z"/>
<path fill="#F5E3DB" opacity="1.000000" stroke="none" 
	d="
M426.353943,278.769348 
	C435.577942,296.561829 428.860718,316.543762 411.727783,323.228333 
	C399.889313,327.847229 387.091309,324.681549 378.678406,315.053314 
	C370.183716,305.331482 368.761993,290.547241 375.232941,279.224792 
	C386.693085,259.172455 412.804291,258.783997 426.353943,278.769348 
M380.903961,281.565582 
	C380.121216,283.208405 379.174011,284.794250 378.581757,286.503113 
	C373.928131,299.930115 381.755585,315.195496 395.021912,318.678070 
	C408.148132,322.123871 421.858185,312.722046 424.355347,298.562378 
	C426.241577,287.867096 420.193390,276.591461 410.090607,271.968689 
	C399.814026,267.266327 389.426727,270.490295 380.903961,281.565582 
z"/>
<path fill="#19243B" opacity="1.000000" stroke="none" 
	d="
M381.082886,281.240936 
	C389.426727,270.490295 399.814026,267.266327 410.090607,271.968689 
	C420.193390,276.591461 426.241577,287.867096 424.355347,298.562378 
	C421.858185,312.722046 408.148132,322.123871 395.021912,318.678070 
	C381.755585,315.195496 373.928131,299.930115 378.581757,286.503113 
	C379.174011,284.794250 380.121216,283.208405 381.082886,281.240936 
M412.030273,300.110443 
	C412.395142,297.837524 413.114075,295.554871 413.051941,293.293701 
	C412.918274,288.427551 408.911469,283.705261 404.207611,282.321503 
	C399.317932,280.883087 394.120544,282.780090 391.050201,287.123871 
	C386.880981,293.022156 388.249939,301.124725 394.115845,305.268860 
	C399.869385,309.333557 406.749268,307.601105 412.030273,300.110443 
z"/>
<path fill="#FBE9DF" opacity="1.000000" stroke="none" 
	d="
M411.871643,300.473999 
	C406.749268,307.601105 399.869385,309.333557 394.115845,305.268860 
	C388.249939,301.124725 386.880981,293.022156 391.050201,287.123871 
	C394.120544,282.780090 399.317932,280.883087 404.207611,282.321503 
	C408.911469,283.705261 412.918274,288.427551 413.051941,293.293701 
	C413.114075,295.554871 412.395142,297.837524 411.871643,300.473999 
z"/>
</svg>